PathFileType	4	(X/Y/Z)	C:/Users/opensim2020/Desktop/walking_exp_matlab/subject06_walking22_straight_01.trc	
DataRate	CameraRate	NumFrames	NumMarkers	Units	OrigDataRate	OrigDataStartFrame	OrigNumFrames	
100.00	100.00	4	44	mm	100.00	794	141	
Frame#	Time	LFHD			RFHD			LBHD			RBHD			C7			T10			CLAV			STRN			RBAK			LSHO			LUPA			LELB			LFRM			LWRA			LWRB			LFIN			RSHO			RUPA			RELB			RFRM			RWRA			RWRB			RFIN			LASI			RASI			LPSI			RPSI			LTHI			LKNE			LTIB			LANK			LHEE			LTOE			RTHI			RKNE			RTIB			RANK			RHEE			RTOE			*39			*40			*41			*42			*43			
		X1	Y1	Z1	X2	Y2	Z2	X3	Y3	Z3	X4	Y4	Z4	X5	Y5	Z5	X6	Y6	Z6	X7	Y7	Z7	X8	Y8	Z8	X9	Y9	Z9	X10	Y10	Z10	X11	Y11	Z11	X12	Y12	Z12	X13	Y13	Z13	X14	Y14	Z14	X15	Y15	Z15	X16	Y16	Z16	X17	Y17	Z17	X18	Y18	Z18	X19	Y19	Z19	X20	Y20	Z20	X21	Y21	Z21	X22	Y22	Z22	X23	Y23	Z23	X24	Y24	Z24	X25	Y25	Z25	X26	Y26	Z26	X27	Y27	Z27	X28	Y28	Z28	X29	Y29	Z29	X30	Y30	Z30	X31	Y31	Z31	X32	Y32	Z32	X33	Y33	Z33	X34	Y34	Z34	X35	Y35	Z35	X36	Y36	Z36	X37	Y37	Z37	X38	Y38	Z38	X39	Y39	Z39	X40	Y40	Z40	X41	Y41	Z41	X42	Y42	Z42	X43	Y43	Z43	X44	Y44	Z44	

53	0.520	1401.86438	-339.54807	1660.33752	1533.01514	-334.44547	1643.46741	1405.95398	-476.55304	1617.16089	1534.78870	-469.78354	1605.29175	1450.21216	-488.30533	1456.14856	1441.97815	-543.58594	1130.10132	1445.24182	-382.52975	1371.93127	1426.20410	-354.34970	1194.94275	1519.62537	-569.60339	1285.38599	1285.84412	-434.47769	1416.55969	1206.48840	-442.59448	1216.80029	1192.31433	-444.37738	1104.23779	1172.06995	-375.96674	971.23358	1214.26465	-273.54218	894.68677	1183.07239	-328.94501	862.14978	1182.63562	-257.54794	805.86249	1607.32458	-424.01205	1396.44299	1694.12048	-484.63541	1205.17261	1711.70557	-491.60260	1084.04358	1734.66309	-492.84650	964.53760	1710.45532	-454.73322	817.28339	1749.41052	-507.72266	827.29645	1754.31567	-481.01401	747.00000	1323.45532	-383.58670	955.21655	1542.43982	-366.70056	971.52869	1363.32446	-537.48523	990.96747	1530.13354	-518.99951	1001.75775	1286.65234	-459.39386	634.78040	1310.73389	-457.75797	471.55154	1327.35889	-661.21558	329.05920	1369.76111	-799.10510	232.58122	1417.14233	-828.79584	258.10919	1375.12476	-758.97430	90.01082	1599.56128	-374.40533	644.45233	1565.76038	-348.25272	524.10956	1562.74731	-383.85721	257.96664	1511.93323	-397.61761	73.69447	1469.68530	-439.88031	49.70438	1498.95007	-245.77383	40.92831	1467.60437	-433.44336	1703.82617												 
54	0.530	1401.56604	-326.97687	1662.25732	1532.82202	-321.57941	1645.87878	1406.09692	-463.98438	1619.11951	1534.90845	-456.90652	1607.67322	1451.38562	-475.97421	1458.19800	1443.68152	-530.69861	1132.13220	1445.89551	-369.81607	1374.01733	1427.09607	-341.67685	1197.02075	1521.56018	-556.51660	1287.61646	1286.61670	-422.95905	1418.17444	1207.46838	-432.13345	1218.31287	1193.46423	-434.87704	1105.71887	1172.13159	-370.32758	970.43689	1212.68201	-270.73007	889.64282	1182.03125	-327.27725	859.63293	1180.22266	-258.33759	800.77203	1608.11133	-410.65976	1398.88049	1695.36719	-469.58252	1207.21704	1712.77954	-475.39215	1086.03992	1735.36243	-474.63095	966.54388	1710.35645	-433.82568	820.11310	1749.69336	-486.65613	828.89435	1754.24146	-458.39777	749.25360	1324.15723	-370.64383	957.55200	1542.99329	-354.11066	973.10498	1364.18970	-524.85602	992.94690	1530.91528	-506.87402	1003.64569	1287.12854	-440.31058	636.94904	1311.24841	-433.92252	474.00238	1327.56226	-635.60199	331.14539	1369.36841	-773.55872	234.01094	1416.31824	-804.80280	259.24789	1375.85718	-730.33148	93.36544	1599.90515	-366.54831	644.58118	1565.99426	-343.37714	523.31287	1563.33118	-381.37018	257.94791	1512.48950	-397.72409	73.61482	1470.06995	-440.16544	49.66003	1498.79858	-245.83963	40.78761	1467.30957	-420.75403	1705.98499												 
55	0.540	1401.14771	-314.43057	1663.93530	1532.45459	-308.75256	1648.09546	1406.18884	-451.43057	1620.81946	1535.03162	-444.07556	1609.89307	1452.25183	-462.84451	1460.05591	1445.27686	-517.90985	1133.97083	1446.53784	-357.23520	1375.92053	1427.98438	-329.01971	1198.92627	1523.56665	-543.48633	1289.62524	1287.44006	-411.40430	1419.64709	1208.37854	-421.61923	1219.71899	1194.50903	-425.46780	1107.03418	1172.00586	-365.08423	969.80072	1211.29004	-268.28329	884.80157	1180.59570	-326.19843	857.28497	1177.92468	-259.60760	795.83881	1608.88843	-397.32822	1401.18970	1696.62073	-454.56351	1209.15234	1713.95740	-459.15729	1087.92725	1736.18445	-456.05304	968.38129	1710.42163	-412.20450	823.03271	1749.89063	-465.40576	830.51367	1753.97742	-435.45944	751.57471	1324.86096	-358.21991	959.82574	1543.65015	-341.66119	974.45184	1365.03735	-512.19385	994.80042	1531.71460	-493.72574	1005.30475	1287.68103	-421.30777	639.18866	1311.83557	-409.96210	476.63382	1327.63306	-609.35583	332.19870	1369.09656	-747.13306	233.95062	1415.93262	-779.46417	258.65240	1375.79541	-700.57306	95.06438	1600.47534	-359.15494	644.59979	1566.85864	-337.64087	523.11707	1564.00708	-379.42404	257.85559	1512.95239	-397.87918	73.49308	1470.52502	-440.48624	49.66878	1498.81311	-245.88397	40.54997	1466.95935	-408.11035	1707.97266												 
56	0.550	1400.66504	-301.96051	1665.33826	1531.97742	-295.91177	1650.00647	1406.24756	-438.99365	1622.37939	1535.08789	-431.23547	1611.90784	1453.22498	-450.14813	1461.57190	1446.91199	-505.27551	1135.75916	1447.06140	-344.64926	1377.57349	1428.82825	-316.46393	1200.59729	1525.50281	-530.57422	1291.50879	1288.28040	-399.84027	1420.93127	1209.24146	-411.16574	1221.02991	1195.46704	-416.17633	1108.30823	1171.94897	-360.19489	969.20551	1209.90308	-266.21405	880.09033	1179.35217	-325.30405	855.16071	1175.69629	-261.23801	791.18536	1609.61914	-383.99191	1403.27710	1697.82263	-439.49237	1210.93665	1715.15295	-442.93246	1089.65955	1736.92578	-437.51813	970.17078	1710.07275	-390.97064	826.01001	1749.96436	-443.89026	832.10217	1753.67981	-412.26541	753.83545	1325.67676	-345.46286	961.89294	1544.50745	-329.36252	975.57147	1365.89294	-499.45731	996.49292	1532.56250	-480.93439	1006.68420	1288.21252	-402.15939	641.45319	1312.22815	-386.19501	479.48364	1327.54431	-582.82867	332.39365	1369.22437	-719.75372	232.37106	1415.92432	-753.18658	256.35587	1375.43225	-669.07495	95.86650	1601.00610	-352.13934	644.46857	1567.53174	-332.50864	522.57898	1564.90283	-378.05154	257.79532	1513.31299	-397.99768	73.43743	1470.87390	-440.67950	49.76418	1499.00146	-245.82645	40.32098	1466.53760	-395.39474	1709.68018												 
